<?xml version="1.0" standalone="no"?>
<!DOCTYPE svg PUBLIC "-//W3C//DTD SVG 20010904//EN"
 "http://www.w3.org/TR/2001/REC-SVG-20010904/DTD/svg10.dtd">
<svg version="1.0" xmlns="http://www.w3.org/2000/svg"
 width="250.000000pt" height="250.000000pt" viewBox="0 0 250.000000 250.000000"
 preserveAspectRatio="xMidYMid meet">
<metadata>
Created by potrace 1.11, written by Peter Selinger 2001-2013
</metadata>
<g transform="translate(0.000000,250.000000) scale(0.100000,-0.100000)"
fill="#000000" stroke="none">
<path d="M1120 2413 c-44 -7 -152 -34 -169 -43 -9 -5 -32 -16 -51 -25 -120
-56 -248 -173 -305 -277 -34 -60 -77 -158 -77 -172 0 -3 -6 -25 -13 -50 -21
-70 -18 -280 5 -363 11 -37 67 -163 125 -279 58 -116 105 -216 105 -223 0 -6
7 -23 16 -36 9 -14 13 -25 10 -25 -4 0 -1 -10 5 -22 7 -13 16 -36 20 -53 4
-16 16 -65 27 -107 12 -42 21 -85 21 -95 -1 -27 19 -103 37 -145 29 -65 48
-69 344 -68 151 1 273 6 290 12 34 11 69 55 76 95 3 15 7 30 9 34 3 3 7 28 10
55 3 27 15 85 26 129 11 44 22 87 24 95 8 38 65 181 92 233 8 15 12 27 10 27
-3 0 24 54 58 120 35 66 73 146 85 177 51 136 64 286 36 419 -19 88 -72 219
-103 252 -7 7 -13 18 -13 23 0 17 -136 152 -193 191 -68 46 -150 84 -227 105
-52 14 -227 24 -280 16z"/>
<path d="M1420 370 c-25 -4 -81 -10 -124 -14 -44 -4 -82 -9 -86 -11 -4 -2 -34
-6 -68 -9 -33 -2 -104 -10 -158 -18 -84 -11 -98 -16 -107 -35 -8 -17 -7 -30 3
-48 13 -24 17 -25 79 -20 36 3 73 7 81 10 8 2 47 7 85 10 39 3 97 10 130 15
33 5 92 12 130 15 90 8 141 21 149 40 8 21 -9 61 -29 69 -19 7 -22 7 -85 -4z"/>
<path d="M1458 255 c-3 -3 -87 -13 -163 -20 -38 -4 -84 -9 -290 -37 -49 -6
-94 -12 -100 -12 -18 -1 -23 -60 -7 -78 17 -20 49 -22 119 -9 26 6 84 13 127
16 43 3 82 8 86 10 3 2 40 7 81 10 41 3 100 10 133 16 32 6 61 8 64 5 3 -4 14
1 24 11 38 34 11 91 -44 91 -15 0 -28 -2 -30 -3z"/>
</g>
</svg>
